<?xml version="1.0" encoding="iso-8859-1"?>
<!-- Generator: Adobe Illustrator 19.2.0, SVG Export Plug-In . SVG Version: 6.00 Build 0)  -->
<svg version="1.1" id="Layer_1" xmlns="http://www.w3.org/2000/svg" xmlns:xlink="http://www.w3.org/1999/xlink" x="0px" y="0px"
	 viewBox="0 0 250 50" style="enable-background:new 0 0 250 50;" xml:space="preserve">
<g>
	<rect x="50" style="fill:none;" width="50" height="50"/>
	<rect style="fill:none;" width="50" height="50"/>
	<rect x="100" style="fill:none;" width="50" height="50"/>
	<rect x="150" style="fill:none;" width="50" height="50"/>
	<rect x="200" style="fill:none;" width="50" height="50"/>
	<path style="fill:#FFFFFF;" d="M239.057,11h-28.114c-2.413,0-4.376,1.885-4.376,4.202v19.596c0,2.317,1.963,4.202,4.376,4.202
		h28.114c2.413,0,4.375-1.885,4.375-4.202V15.202C243.433,12.885,241.47,11,239.057,11z M239.057,35.29h-28.114
		c-0.355,0-0.666-0.23-0.666-0.492V17.793l12.715,10.735c0.261,0.22,0.592,0.341,0.934,0.341l2.147,0
		c0.341,0,0.673-0.121,0.934-0.341l12.716-10.735v17.005C239.723,35.06,239.412,35.29,239.057,35.29z M225,25.186L212.633,14.71
		h24.734L225,25.186z"/>
	<path style="fill:#FFFFFF;" d="M121.265,28.786c2.876,2.855,6.206,5.583,7.513,4.266c1.871-1.885,3.023-3.525,7.176-0.213
		c4.153,3.313,0.981,5.543-0.831,7.37c-2.092,2.107-9.926,0.148-17.691-7.559c-7.765-7.708-9.784-15.527-7.691-17.635
		c1.813-1.827,4.019-5.014,7.362-0.886c3.344,4.127,1.713,5.291-0.159,7.177C115.636,22.622,118.388,25.93,121.265,28.786z
		 M125.436,15.164c0,0-0.868-0.136-1.475,0.472c-0.625,0.625-0.653,1.703,0.006,2.361c0.389,0.389,0.939,0.472,0.939,0.472
		c1.071,0.201,2.684,0.541,4.401,2.257c1.716,1.716,2.056,3.33,2.257,4.401c0,0,0.083,0.549,0.472,0.939
		c0.659,0.659,1.736,0.632,2.361,0.006c0.608-0.607,0.472-1.475,0.472-1.475c-0.34-2.168-1.391-4.433-3.196-6.238
		C129.868,16.556,127.603,15.505,125.436,15.164z M133.574,16.459c3.147,3.147,4.489,6.718,4.052,9.613c0,0-0.152,0.917,0.446,1.515
		c0.674,0.674,1.742,0.635,2.372,0.005c0.405-0.405,0.493-1.065,0.493-1.065c0.361-2.501-0.093-7.532-4.996-12.435
		c-4.903-4.903-9.934-5.357-12.435-4.996c0,0-0.659,0.088-1.065,0.493c-0.631,0.631-0.669,1.699,0.005,2.372
		c0.599,0.599,1.515,0.446,1.515,0.446C126.856,11.971,130.428,13.312,133.574,16.459z"/>
	<g>
		<path style="fill:#FFFFFF;" d="M175,9c-6.202,0-11.23,5.028-11.23,11.23c0,0.475,0.038,0.937,0.096,1.396
			c0.96,8.772,10.404,18.882,10.404,18.882c0.168,0.188,0.331,0.304,0.487,0.389l0.008,0.004l0.315,0.1l0.315-0.1l0.008-0.004
			c0.156-0.084,0.319-0.206,0.487-0.389c0,0,9.309-10.128,10.246-18.902c0.056-0.453,0.094-0.911,0.094-1.378
			C186.228,14.028,181.202,9,175,9z M175,27.453c-3.982,0-7.223-3.241-7.223-7.223s3.241-7.223,7.223-7.223
			c3.982,0,7.221,3.241,7.221,7.223S178.982,27.453,175,27.453z"/>
	</g>
	<path style="fill-rule:evenodd;clip-rule:evenodd;fill:#FFFFFF;" d="M81.449,41H68.542c-0.525,0-1-0.209-1.342-0.559
		c-0.342-0.342-0.559-0.817-0.559-1.342V29.56H83.35v9.539c0,0.525-0.208,1-0.559,1.342C82.45,40.791,81.974,41,81.449,41L81.449,41
		z M68.542,9h12.907c1.009,0,1.926,0.409,2.593,1.076c0.667,0.667,1.076,1.584,1.076,2.593v5.753h2.268
		c1.484,0,2.701,1.209,2.701,2.693v10.864c0,1.484-1.217,2.702-2.701,2.702h-2.268v-6.087V27.71h-0.884H65.758h-0.884v0.884v6.087
		h-2.268c-1.484,0-2.693-1.217-2.693-2.702V21.115c0-1.484,1.209-2.693,2.693-2.693h2.268v-5.753c0-1.009,0.408-1.926,1.076-2.593
		C66.617,9.409,67.534,9,68.542,9L68.542,9z M81.449,10.768H68.542c-0.525,0-1,0.217-1.342,0.559
		c-0.342,0.342-0.559,0.817-0.559,1.342v9.547H83.35v-9.547c0-0.525-0.208-1-0.559-1.342C82.45,10.985,81.974,10.768,81.449,10.768
		L81.449,10.768z"/>
	<g>
		<path style="fill:#FFFFFF;" d="M37.895,41c-8.596,0-17.193,0-25.789,0c-0.18-0.05-0.361-0.095-0.539-0.151
			c-0.94-0.294-1.495-1.106-1.5-2.205c-0.004-1.102,0.016-2.205-0.006-3.306c-0.021-1.084,0.18-2.121,0.573-3.125
			c1.334-3.409,3.269-6.488,5.274-9.525c0.329-0.499,0.826-0.804,1.449-0.845c0.407-0.027,0.814-0.054,1.261-0.083
			c0-0.131,0-0.25,0-0.369c0-0.701-0.001-1.403,0-2.104c0.001-0.592,0.245-1.053,0.75-1.366c0.734-0.455,1.515-0.469,2.31-0.205
			c0.742,0.247,1.149,0.834,1.152,1.618c0.002,0.646,0,1.291,0,1.937c0,0.162,0,0.325,0,0.496c1.468,0,2.886,0,4.34,0
			c0-0.144,0-0.264,0-0.384c0-0.679-0.004-1.358,0.001-2.037c0.005-0.776,0.37-1.322,1.078-1.607
			c0.554-0.223,1.13-0.251,1.703-0.106c1.002,0.252,1.43,0.818,1.43,1.844c0,0.646-0.001,1.291,0.001,1.937
			c0,0.118,0.012,0.235,0.019,0.377c0.302,0,0.568-0.004,0.834,0.001c0.798,0.012,1.479,0.262,1.959,0.945
			c1.763,2.507,3.401,5.087,4.633,7.904c0.486,1.112,0.949,2.25,1.022,3.467c0.093,1.542,0.082,3.092,0.076,4.638
			c-0.004,1.068-0.622,1.869-1.556,2.127C38.212,40.915,38.053,40.957,37.895,41z M31.446,32.457c0.094-3.4-2.743-6.299-6.076-6.463
			c-3.965-0.195-6.682,3-6.826,6.091c-0.183,3.922,2.975,6.679,6.136,6.821C28.534,39.08,31.552,35.864,31.446,32.457z"/>
		<path style="fill:#FFFFFF;" d="M42.104,19.687c-0.029,0.07-0.073,0.138-0.085,0.211c-0.193,1.14-0.943,1.808-2.113,1.824
			c-1.336,0.018-2.673,0.017-4.008,0.001c-1.311-0.017-2.226-0.891-2.238-2.2c-0.021-2.242-1.197-3.784-2.962-4.952
			c-1.22-0.807-2.613-1.149-4.064-1.264c-1.446-0.114-2.889-0.125-4.321,0.137c-2.305,0.421-4.164,1.514-5.328,3.613
			c-0.388,0.699-0.601,1.455-0.567,2.267c0.047,1.109-0.574,1.886-1.378,2.23c-0.277,0.118-0.605,0.161-0.91,0.166
			c-1.303,0.017-2.605,0.01-3.908,0.007c-1.351-0.003-2.158-0.906-2.245-1.858c-0.006-0.062-0.051-0.121-0.078-0.181
			c0-0.802,0-1.603,0-2.405c0.028-0.106,0.077-0.211,0.082-0.318c0.036-0.774,0.299-1.473,0.813-2.036
			c2.056-2.252,4.497-3.927,7.433-4.83c2.374-0.73,4.814-1.014,7.289-1.077c2.649-0.067,5.286,0.016,7.903,0.483
			c3.761,0.672,6.943,2.415,9.58,5.164c0.485,0.506,0.825,1.103,0.957,1.802c0.055,0.292,0.1,0.586,0.15,0.879
			C42.104,18.128,42.104,18.908,42.104,19.687z"/>
		<path style="fill:#FFFFFF;" d="M25.014,28.242c2.264-0.028,4.233,1.799,4.211,4.225c-0.021,2.369-1.812,4.189-4.215,4.203
			c-2.461,0.014-4.247-1.985-4.219-4.256C20.819,30.07,22.674,28.23,25.014,28.242z"/>
	</g>
</g>
</svg>
