<svg version="1.1" id="Layer_1" xmlns="http://www.w3.org/2000/svg" xmlns:xlink="http://www.w3.org/1999/xlink" x="0px" y="0px"
	 viewBox="0 0 150 50" style="enable-background:new 0 0 150 50;" xml:space="preserve">
<style type="text/css">
	.st0{fill:none;}
	.st1{fill:#FFFFFF;}
</style>
<g>
	<rect class="st0" width="50" height="50"/>
	<rect x="50" class="st0" width="50" height="50"/>
	<rect x="100" class="st0" width="50" height="50"/>
	<path class="st1" d="M139.1,11h-28.1c-2.4,0-4.4,1.9-4.4,4.2v19.6c0,2.3,2,4.2,4.4,4.2h28.1c2.4,0,4.4-1.9,4.4-4.2V15.2
		C143.4,12.9,141.5,11,139.1,11z M139.1,35.3h-28.1c-0.4,0-0.7-0.2-0.7-0.5v-17L123,28.5c0.3,0.2,0.6,0.3,0.9,0.3l2.1,0
		c0.3,0,0.7-0.1,0.9-0.3l12.7-10.7v17C139.7,35.1,139.4,35.3,139.1,35.3z M125,25.2l-12.4-10.5h24.7L125,25.2z"/>
	<path class="st1" d="M21.3,28.8c2.9,2.9,6.2,5.6,7.5,4.3c1.9-1.9,3-3.5,7.2-0.2c4.2,3.3,1,5.5-0.8,7.4c-2.1,2.1-9.9,0.1-17.7-7.6
		C9.7,24.9,7.6,17.1,9.7,15c1.8-1.8,4-5,7.4-0.9c3.3,4.1,1.7,5.3-0.2,7.2C15.6,22.6,18.4,25.9,21.3,28.8z M25.4,15.2
		c0,0-0.9-0.1-1.5,0.5c-0.6,0.6-0.7,1.7,0,2.4c0.4,0.4,0.9,0.5,0.9,0.5c1.1,0.2,2.7,0.5,4.4,2.3c1.7,1.7,2.1,3.3,2.3,4.4
		c0,0,0.1,0.5,0.5,0.9c0.7,0.7,1.7,0.6,2.4,0c0.6-0.6,0.5-1.5,0.5-1.5c-0.3-2.2-1.4-4.4-3.2-6.2C29.9,16.6,27.6,15.5,25.4,15.2z
		 M33.6,16.5c3.1,3.1,4.5,6.7,4.1,9.6c0,0-0.2,0.9,0.4,1.5c0.7,0.7,1.7,0.6,2.4,0c0.4-0.4,0.5-1.1,0.5-1.1c0.4-2.5-0.1-7.5-5-12.4
		C31,9.2,26,8.7,23.5,9.1c0,0-0.7,0.1-1.1,0.5c-0.6,0.6-0.7,1.7,0,2.4c0.6,0.6,1.5,0.4,1.5,0.4C26.9,12,30.4,13.3,33.6,16.5z"/>
	<g>
		<path class="st1" d="M75,9c-6.2,0-11.2,5-11.2,11.2c0,0.5,0,0.9,0.1,1.4c1,8.8,10.4,18.9,10.4,18.9c0.2,0.2,0.3,0.3,0.5,0.4l0,0
			l0.3,0.1l0.3-0.1l0,0c0.2-0.1,0.3-0.2,0.5-0.4c0,0,9.3-10.1,10.2-18.9c0.1-0.5,0.1-0.9,0.1-1.4C86.2,14,81.2,9,75,9z M75,27.5
			c-4,0-7.2-3.2-7.2-7.2S71,13,75,13s7.2,3.2,7.2,7.2S79,27.5,75,27.5z"/>
	</g>
</g>
</svg>
