<?xml version="1.0" encoding="utf-8"?>
<!-- Generator: Adobe Illustrator 19.1.0, SVG Export Plug-In . SVG Version: 6.00 Build 0)  -->
<svg version="1.1" id="Layer_1" xmlns="http://www.w3.org/2000/svg" xmlns:xlink="http://www.w3.org/1999/xlink" x="0px" y="0px"
	 viewBox="0 0 100 90" style="enable-background:new 0 0 100 90;" xml:space="preserve">
<style type="text/css">
	.st0{fill:#999999;}
	.st1{clip-path:url(#SVGID_2_);fill:#FFFFFF;}
	.st2{fill:#F45000;}
</style>
<rect class="st0" width="100" height="90"/>
<rect x="45.3" width="21.8" height="76.4"/>
<path d="M100,23.1v-8.3C100,6.7,93.3,0,85.2,0H47v38h23.6c2.7,0,5.2,1.6,6.2,4.2l15.6,38.1l7.6-3.1V54.1l-7.4-18
	C97,33.4,100,28.5,100,23.1z M62,12h15.1c2.9,0,4.9,2.4,4.9,5.3v3.4c0,2.9-2,5.3-4.9,5.3H62V12z"/>
<g>
	<defs>
		<path id="SVGID_1_" d="M100,90H0V0h90.7c5.2,0,9.3,4.2,9.3,9.3V90z"/>
	</defs>
	<clipPath id="SVGID_2_">
		<use xlink:href="#SVGID_1_"  style="overflow:visible;"/>
	</clipPath>
	
		<rect x="37.7" y="-35.1" transform="matrix(0.8564 -0.5163 0.5163 0.8564 -10.2249 30.0996)" class="st1" width="22.7" height="137"/>
	
		<rect x="13.2" y="-18.1" transform="matrix(0.8564 -0.5163 0.5163 0.8564 -22.5186 19.8919)" class="st1" width="22.7" height="137"/>
</g>
<rect x="0" class="st2" width="23.8" height="90"/>
<rect x="0" y="66.2" class="st2" width="100" height="23.8"/>
</svg>
