<?xml version="1.0" encoding="utf-8"?>
<!-- Generator: Adobe Illustrator 19.1.0, SVG Export Plug-In . SVG Version: 6.00 Build 0)  -->
<svg version="1.1" id="Layer_1" xmlns="http://www.w3.org/2000/svg" xmlns:xlink="http://www.w3.org/1999/xlink" x="0px" y="0px"
	 viewBox="0 0 32 32" style="enable-background:new 0 0 32 32;" xml:space="preserve">
<style type="text/css">
	.st0{fill:#EA4E00;}
	.st1{fill:#FFFFFF;}
</style>
<circle class="st0" cx="16" cy="16" r="16"/>
<g>
	<path class="st1" d="M13.7,18.4c1.8,1.8,3.9,3.5,4.7,2.7c1.2-1.2,1.9-2.2,4.5-0.1c2.6,2.1,0.6,3.5-0.5,4.6
		c-1.3,1.3-6.2,0.1-11.1-4.7c-4.9-4.8-6.1-9.7-4.8-11C7.6,8.6,9,6.6,11.1,9.2c2.1,2.6,1.1,3.3-0.1,4.5
		C10.1,14.5,11.9,16.6,13.7,18.4z M16.3,9.9c0,0-0.5-0.1-0.9,0.3c-0.4,0.4-0.4,1.1,0,1.5c0.2,0.2,0.6,0.3,0.6,0.3
		c0.7,0.1,1.7,0.3,2.8,1.4c1.1,1.1,1.3,2.1,1.4,2.8c0,0,0.1,0.3,0.3,0.6c0.4,0.4,1.1,0.4,1.5,0c0.4-0.4,0.3-0.9,0.3-0.9
		c-0.2-1.4-0.9-2.8-2-3.9C19,10.7,17.6,10.1,16.3,9.9z M21.4,10.7c2,2,2.8,4.2,2.5,6c0,0-0.1,0.6,0.3,0.9c0.4,0.4,1.1,0.4,1.5,0
		C25.9,17.4,26,17,26,17c0.2-1.6-0.1-4.7-3.1-7.8c-3.1-3.1-6.2-3.3-7.8-3.1c0,0-0.4,0.1-0.7,0.3c-0.4,0.4-0.4,1.1,0,1.5
		c0.4,0.4,0.9,0.3,0.9,0.3C17.2,7.9,19.4,8.7,21.4,10.7z"/>
</g>
</svg>
